<svg id="svg" version="1.1" xmlns="http://www.w3.org/2000/svg" xmlns:xlink="http://www.w3.org/1999/xlink" width="400" height="400" viewBox="0, 0, 400,400"><g id="svgg"><path id="path0" d="M189.043 7.886 C 96.146 12.477,19.091 85.618,8.701 179.068 C 3.690 224.143,16.099 273.572,41.271 308.798 L 42.358 310.320 47.099 307.714 C 52.844 304.557,67.272 297.293,76.860 292.730 C 99.873 281.779,113.131 274.593,123.794 267.294 C 128.601 264.003,135.600 258.608,135.219 258.488 C 134.757 258.342,121.940 254.783,121.882 254.785 C 121.854 254.786,121.792 255.471,121.743 256.307 C 121.556 259.518,119.088 262.954,116.019 264.277 C 108.082 267.696,99.478 258.532,103.442 250.882 C 103.942 249.919,104.310 249.107,104.260 249.078 C 104.211 249.049,102.625 248.456,100.736 247.761 C 78.902 239.721,56.649 226.608,46.934 216.057 C 45.315 214.298,42.445 211.205,40.556 209.183 C 38.667 207.161,36.618 204.636,36.002 203.571 C 35.385 202.506,34.252 200.973,33.482 200.164 C 24.115 190.310,39.331 168.881,77.348 138.390 C 110.351 111.921,124.387 105.428,170.401 95.347 C 201.023 88.638,207.991 86.861,223.172 81.888 C 252.802 72.181,263.291 73.086,276.545 86.490 C 291.006 101.116,296.032 115.562,298.283 148.978 C 299.518 167.305,299.746 168.646,304.986 188.389 C 319.618 243.522,322.172 267.578,315.415 286.590 C 312.831 293.860,307.070 300.492,301.210 302.943 C 300.589 303.203,299.083 304.085,297.863 304.904 C 293.339 307.939,287.883 308.250,279.150 305.971 C 276.631 305.314,272.582 304.361,270.151 303.855 C 265.716 302.930,264.146 302.504,252.657 299.107 C 249.240 298.097,240.262 295.649,232.706 293.666 C 199.075 284.842,183.250 279.134,171.754 271.682 C 170.429 270.823,169.312 270.165,169.272 270.220 C 169.232 270.274,168.426 271.612,167.481 273.193 C 157.351 290.138,138.707 308.055,120.033 318.791 C 117.631 320.171,116.339 321.322,110.544 327.243 C 101.499 336.483,85.672 354.033,85.700 354.791 C 85.748 356.127,106.698 368.741,116.926 373.591 C 215.984 420.573,334.079 376.199,376.754 275.960 C 432.850 144.195,332.442 0.800,189.043 7.886 M178.822 27.742 C 182.975 30.699,180.385 37.790,175.386 37.149 C 168.967 36.325,169.885 26.350,176.328 26.911 C 177.163 26.983,178.280 27.356,178.822 27.742 M88.950 72.690 C 93.769 75.161,91.740 83.620,86.277 83.832 C 80.978 84.037,78.283 78.230,81.868 74.330 C 84.145 71.853,86.330 71.347,88.950 72.690 M147.068 87.600 C 150.559 89.390,151.592 92.633,149.846 96.323 C 146.330 103.756,136.637 102.047,136.658 93.998 C 136.674 88.099,141.844 84.922,147.068 87.600 M318.492 108.227 C 321.251 109.641,323.213 113.397,322.438 115.777 C 320.817 120.752,313.715 121.767,310.800 117.441 C 307.148 112.022,312.767 105.291,318.492 108.227 M351.126 164.341 C 360.189 167.044,357.723 182.380,348.380 181.416 C 346.120 181.182,343.428 179.865,342.085 178.335 C 336.034 171.444,342.320 161.713,351.126 164.341 M40.955 230.268 C 45.394 231.501,46.952 237.311,43.736 240.644 C 42.628 241.793,41.527 242.180,38.409 242.518 L 36.426 242.732 34.911 240.892 C 30.752 235.840,34.881 228.581,40.955 230.268 M339.678 298.948 C 345.151 301.597,346.585 310.009,342.379 314.787 C 338.036 319.722,329.568 318.656,326.627 312.805 C 322.287 304.171,331.112 294.801,339.678 298.948 M179.456 332.981 C 184.331 335.341,185.208 341.492,181.274 345.740 C 177.567 349.744,173.400 349.937,170.167 346.254 C 165.122 340.508,172.683 329.703,179.456 332.981 M251.075 334.110 C 254.287 335.992,255.008 340.103,252.728 343.538 C 249.853 347.872,245.399 347.717,242.223 343.174 C 238.208 337.432,244.955 330.524,251.075 334.110 " stroke="none" fill="#434b8b" fill-rule="evenodd"></path><path id="path1" d="M244.481 85.241 C 237.646 85.898,231.081 87.704,217.421 92.685 C 201.490 98.495,194.842 100.364,176.615 104.154 C 130.993 113.640,125.482 115.707,103.025 131.756 C 80.194 148.073,60.338 164.822,49.979 176.503 C 48.309 178.387,46.454 180.160,45.859 180.443 C 41.885 182.328,38.497 189.171,39.120 194.051 C 39.814 199.482,44.652 206.217,53.893 214.618 C 57.743 218.117,58.502 218.487,56.056 215.672 C 45.261 203.248,42.890 195.173,48.736 190.737 C 49.859 189.886,50.342 189.218,50.790 187.903 L 51.376 186.182 54.370 185.798 C 56.017 185.587,58.991 185.243,60.980 185.034 C 65.892 184.518,86.439 184.558,93.377 185.097 C 96.435 185.335,103.794 185.567,109.730 185.612 C 134.532 185.804,156.171 189.351,178.741 196.925 C 193.214 201.782,199.913 206.311,216.244 222.283 C 228.810 234.571,230.573 236.062,246.610 247.947 C 257.578 256.077,259.777 257.517,271.300 264.116 C 286.063 272.571,290.289 275.589,295.856 281.655 C 298.456 284.488,298.483 284.986,296.312 289.877 C 292.131 299.296,285.424 300.055,256.744 294.358 C 249.629 292.944,249.737 293.106,257.714 295.816 C 281.968 304.052,298.779 303.365,304.176 293.915 L 305.090 292.314 303.664 289.984 C 302.879 288.702,301.952 286.623,301.605 285.364 C 298.697 274.839,292.160 263.600,283.254 253.817 C 275.803 245.632,272.605 240.444,274.197 239.123 C 274.819 238.607,280.296 240.030,283.340 241.499 C 286.266 242.910,286.198 243.092,284.371 238.764 C 282.197 233.614,278.975 229.346,268.717 218.026 C 255.257 203.174,250.761 194.159,250.453 181.409 C 250.285 174.443,253.926 174.095,257.077 180.776 C 258.938 184.721,259.264 184.954,258.359 181.689 C 255.662 171.962,256.343 161.138,260.122 153.672 C 262.933 148.121,263.169 148.251,265.224 156.479 C 266.770 162.669,266.902 162.804,267.524 158.827 C 267.746 157.409,268.580 153.683,269.377 150.549 L 270.826 144.849 270.176 140.851 C 269.256 135.187,267.740 130.212,263.658 119.452 C 259.304 107.978,259.548 108.774,260.192 108.129 C 261.674 106.648,267.292 110.828,270.682 115.934 C 272.891 119.261,272.573 118.114,269.428 111.411 C 268.173 108.738,266.683 105.329,266.116 103.834 C 265.118 101.201,264.896 100.912,259.035 94.616 C 255.707 91.041,252.401 87.461,251.687 86.661 C 250.305 85.110,248.842 84.822,244.481 85.241 M236.624 94.312 C 238.035 95.344,235.007 100.984,231.139 104.529 C 227.392 107.963,217.926 113.500,211.369 116.093 L 210.309 116.512 211.123 117.480 C 214.374 121.342,207.176 126.590,188.226 134.172 C 177.356 138.522,174.058 140.195,173.119 141.838 C 172.726 142.527,171.347 144.342,170.056 145.871 C 167.963 148.349,165.823 151.927,165.822 152.949 C 165.822 153.185,166.269 153.095,167.036 152.704 C 169.690 151.351,173.148 153.165,172.271 155.450 C 172.182 155.683,172.313 156.153,172.563 156.495 C 172.813 156.837,173.017 157.609,173.017 158.212 C 173.017 159.619,175.404 167.029,176.680 169.583 C 179.952 176.132,188.434 186.744,193.301 190.377 C 198.057 193.927,198.817 196.331,195.451 197.178 C 192.692 197.873,190.540 197.337,185.776 194.769 C 179.245 191.248,175.307 189.625,172.551 189.318 C 171.030 189.149,168.315 188.478,166.149 187.736 C 154.839 183.862,140.699 182.259,111.365 181.528 C 103.080 181.322,95.557 180.926,88.798 180.340 C 76.403 179.267,64.762 179.133,59.067 179.997 C 53.468 180.846,53.254 180.065,57.656 174.824 C 72.510 157.134,94.127 140.591,118.561 128.213 C 136.548 119.101,147.737 115.633,182.829 108.291 C 205.922 103.460,218.188 100.181,228.438 96.098 C 230.228 95.385,232.154 94.743,232.720 94.671 C 233.285 94.598,234.102 94.397,234.535 94.224 C 235.625 93.788,235.924 93.801,236.624 94.312 M276.011 159.155 C 275.357 159.943,281.339 171.382,282.405 171.382 C 284.227 171.382,281.474 163.687,278.257 159.783 C 277.206 158.508,276.672 158.359,276.011 159.155 M274.870 178.695 C 274.612 179.367,277.602 185.932,279.369 188.573 C 281.943 192.422,284.522 193.662,284.816 191.190 C 285.189 188.051,275.804 176.260,274.870 178.695 M272.332 192.585 C 271.287 193.740,272.008 196.003,274.955 200.818 C 275.671 201.987,276.875 204.134,277.630 205.589 C 280.240 210.615,282.859 212.072,284.070 209.173 C 285.066 206.791,284.441 204.629,281.199 199.230 C 277.511 193.090,274.153 190.573,272.332 192.585 " stroke="none" fill="#21b590" fill-rule="evenodd"></path><path id="path2" d="M183.974 0.501 C 103.243 6.491,33.001 62.716,8.900 140.638 C -10.006 201.767,1.778 270.336,39.721 319.981 C 40.156 320.550,40.564 320.381,47.082 316.926 C 55.386 312.525,71.415 304.646,87.653 296.984 C 113.614 284.735,119.236 281.897,126.588 277.329 C 142.783 267.269,152.992 255.649,157.290 242.387 C 158.085 239.935,160.600 235.159,161.097 235.159 C 161.583 235.159,158.189 244.868,156.581 248.078 C 146.474 268.258,131.209 280.311,87.817 302.374 C 68.508 312.192,44.481 325.207,44.481 325.849 C 44.481 326.028,45.298 327.105,46.296 328.242 L 48.111 330.310 50.303 328.911 C 51.508 328.142,55.732 325.619,59.689 323.304 C 124.964 285.121,164.577 255.336,168.687 241.347 C 169.040 240.148,169.435 239.412,169.725 239.412 C 169.984 239.411,170.536 239.091,170.952 238.700 L 171.709 237.989 171.709 238.874 C 171.709 239.361,171.475 240.307,171.189 240.975 C 170.903 241.644,170.082 243.884,169.365 245.953 C 164.817 259.073,158.820 270.026,150.507 280.393 C 142.780 290.029,139.019 293.941,134.376 297.170 C 122.097 305.711,108.854 317.558,92.183 334.915 C 84.290 343.132,73.551 354.925,73.670 355.243 C 74.267 356.834,93.833 370.116,102.862 375.060 C 220.999 439.748,367.905 372.932,395.716 241.864 C 423.539 110.742,318.097 -9.450,183.974 0.501 M209.827 7.856 C 335.023 13.956,421.309 137.954,383.589 257.563 C 348.307 369.443,223.070 423.934,116.926 373.591 C 106.698 368.741,85.748 356.127,85.700 354.791 C 85.672 354.033,101.499 336.483,110.544 327.243 C 116.339 321.322,117.631 320.171,120.033 318.791 C 138.707 308.055,157.351 290.138,167.481 273.193 C 168.426 271.612,169.232 270.274,169.272 270.220 C 169.312 270.165,170.429 270.823,171.754 271.682 C 183.250 279.134,199.075 284.842,232.706 293.666 C 240.262 295.649,249.240 298.097,252.657 299.107 C 264.146 302.504,265.716 302.930,270.151 303.855 C 272.582 304.361,276.631 305.314,279.150 305.971 C 287.883 308.250,293.339 307.939,297.863 304.904 C 299.083 304.085,300.589 303.203,301.210 302.943 C 314.501 297.384,321.162 277.315,318.280 251.513 C 316.297 233.752,313.497 220.461,304.986 188.389 C 299.746 168.646,299.518 167.305,298.283 148.978 C 296.032 115.562,291.006 101.116,276.545 86.490 C 263.291 73.086,252.802 72.181,223.172 81.888 C 207.991 86.861,201.023 88.638,170.401 95.347 C 124.387 105.428,110.351 111.921,77.348 138.390 C 39.331 168.881,24.115 190.310,33.482 200.164 C 34.252 200.973,35.385 202.506,36.002 203.571 C 36.618 204.636,38.667 207.161,40.556 209.183 C 42.445 211.205,45.315 214.298,46.934 216.057 C 56.572 226.525,77.723 239.058,99.906 247.447 L 104.473 249.174 105.692 248.072 C 109.627 244.517,115.098 244.878,118.901 248.944 C 120.451 250.601,121.648 252.799,121.661 254.009 C 121.667 254.636,122.297 254.881,127.800 256.403 C 131.173 257.335,134.291 258.207,134.729 258.341 C 135.458 258.564,135.186 258.844,131.458 261.708 C 118.450 271.698,105.018 279.330,76.860 292.730 C 67.272 297.293,52.844 304.557,47.099 307.714 L 42.358 310.320 41.271 308.798 C 24.614 285.488,12.360 252.710,8.849 222.077 C -4.705 103.823,90.772 2.056,209.827 7.856 M254.501 85.700 C 269.951 88.849,282.353 102.679,287.319 122.297 C 289.626 131.411,290.458 139.206,291.249 159.117 C 292.247 184.218,292.649 186.921,298.658 208.984 C 309.505 248.812,311.543 265.429,307.432 280.543 C 307.077 281.849,306.784 283.836,306.782 284.959 C 306.725 308.908,271.359 306.835,223.222 280.063 C 214.633 275.286,214.075 274.932,213.966 274.194 C 213.654 272.079,216.477 272.799,232.870 279.017 C 265.921 291.555,279.256 294.955,289.104 293.358 C 294.418 292.495,296.902 290.151,297.802 285.149 C 298.014 283.971,297.958 283.892,294.144 280.052 C 288.677 274.548,285.880 272.621,270.646 263.857 C 259.936 257.696,257.061 255.802,245.953 247.587 C 231.083 236.590,229.237 235.029,217.012 223.111 C 197.766 204.347,191.293 200.405,169.419 194.127 C 149.358 188.369,134.054 186.224,110.026 185.804 C 101.914 185.663,95.141 185.463,94.976 185.361 C 92.772 183.999,56.873 184.772,51.943 186.288 C 49.385 187.075,48.758 200.542,51.304 200.024 C 51.779 199.927,53.168 199.694,54.392 199.506 L 56.617 199.164 60.933 201.274 C 66.224 203.860,70.140 205.391,81.907 209.471 C 86.931 211.213,91.640 212.940,92.373 213.309 C 95.587 214.928,107.306 221.503,107.188 221.621 C 107.116 221.693,105.157 221.462,102.834 221.108 C 96.241 220.103,89.644 219.473,83.304 219.242 L 77.482 219.029 73.396 216.802 C 68.337 214.045,60.443 209.155,55.769 205.883 C 51.681 203.021,51.488 202.997,53.424 205.595 C 56.660 209.939,62.416 214.958,72.006 221.797 C 82.194 229.062,83.695 230.381,82.945 231.407 C 82.527 231.979,82.429 231.973,80.421 231.250 C 62.823 224.919,41.018 205.663,39.160 194.812 C 38.256 189.538,41.126 183.076,45.476 180.592 C 46.352 180.092,48.126 178.471,49.487 176.928 C 61.816 162.949,89.100 140.606,114.292 123.861 C 126.212 115.938,138.828 111.826,172.200 104.987 C 193.296 100.664,200.845 98.604,216.522 92.894 C 237.050 85.418,245.376 83.841,254.501 85.700 M229.763 95.685 C 221.847 99.030,205.809 103.544,189.861 106.918 C 185.544 107.831,178.479 109.322,174.162 110.232 C 148.717 115.595,136.750 119.423,120.523 127.391 C 94.976 139.936,72.728 156.880,57.027 175.747 C 53.485 180.004,53.769 180.738,58.649 179.930 C 63.336 179.154,78.293 179.274,87.817 180.164 C 95.123 180.846,101.395 181.151,122.486 181.850 C 144.186 182.569,155.928 184.143,166.497 187.752 C 168.913 188.577,170.868 189.043,171.909 189.043 C 172.930 189.043,174.936 189.512,177.284 190.299 C 183.821 192.491,183.420 190.325,176.494 186.026 C 175.255 185.257,173.174 183.659,171.869 182.474 C 170.564 181.289,168.780 179.907,167.904 179.402 C 163.437 176.827,162.582 175.544,162.207 170.861 C 161.921 167.292,160.983 164.420,159.915 163.849 C 159.146 163.437,156.205 165.717,155.443 167.315 C 154.836 168.588,154.677 168.583,151.922 167.214 C 147.655 165.094,147.208 162.842,149.308 154.033 C 150.963 147.093,150.668 146.213,147.282 147.985 C 142.322 150.580,138.354 156.764,137.793 162.772 L 137.590 164.948 136.835 164.072 C 133.672 160.394,137.371 151.315,145.183 143.579 C 150.433 138.380,159.923 132.757,164.186 132.319 C 177.240 130.977,198.557 122.761,196.453 119.883 C 195.665 118.806,188.189 118.818,183.647 119.904 C 182.159 120.260,199.026 112.023,202.944 110.481 C 211.896 106.957,221.626 102.073,229.681 97.060 C 234.077 94.324,234.105 93.851,229.763 95.685 M110.986 195.669 C 111.903 196.607,113.093 197.354,114.636 197.960 C 118.564 199.501,121.564 202.082,131.840 212.756 C 134.265 215.274,137.273 218.279,138.525 219.434 L 140.801 221.534 136.386 218.513 C 133.957 216.852,129.189 213.532,125.788 211.136 C 113.778 202.673,105.700 198.141,98.897 196.048 L 94.733 194.767 97.325 194.582 C 98.751 194.480,102.102 194.369,104.772 194.336 L 109.625 194.276 110.986 195.669 M134.437 195.300 L 137.885 195.654 139.095 197.991 C 139.760 199.276,141.788 202.682,143.601 205.560 C 145.414 208.438,147.713 212.412,148.710 214.391 L 150.522 217.989 147.624 215.234 C 146.030 213.719,141.120 208.840,136.713 204.392 C 132.306 199.945,128.185 195.911,127.555 195.429 L 126.410 194.553 128.700 194.750 C 129.959 194.858,132.541 195.106,134.437 195.300 M89.536 197.563 C 94.249 201.963,98.981 205.172,110.156 211.543 C 113.449 213.420,116.076 215.022,115.995 215.104 C 115.701 215.397,108.454 212.212,104.628 210.108 C 94.665 204.629,84.402 200.332,77.187 198.620 C 74.579 198.001,72.155 197.384,71.801 197.247 C 71.190 197.012,81.149 195.691,86.461 195.302 C 86.803 195.277,88.149 196.267,89.536 197.563 M150.799 197.721 C 157.756 199.100,157.386 198.885,157.813 201.799 C 157.931 202.608,158.593 205.626,159.284 208.504 C 160.597 213.973,161.684 219.455,161.493 219.646 C 161.432 219.707,160.369 217.545,159.131 214.841 C 155.262 206.390,151.827 201.951,145.380 197.072 C 144.613 196.492,144.590 196.489,150.799 197.721 M168.905 202.619 C 170.948 203.286,173.789 204.500,174.259 204.906 C 174.312 204.953,173.851 206.222,173.234 207.728 C 172.618 209.234,171.780 211.609,171.372 213.006 C 170.495 216.005,170.464 215.999,169.887 212.694 C 169.410 209.962,168.375 206.724,167.004 203.679 C 166.538 202.645,166.210 201.799,166.275 201.799 C 166.339 201.799,167.523 202.168,168.905 202.619 M185.637 210.560 C 187.971 211.961,190.239 213.360,190.679 213.667 L 191.478 214.227 190.743 214.227 C 187.557 214.227,181.887 218.174,178.335 222.864 C 177.505 223.960,176.779 224.918,176.721 224.993 C 176.217 225.642,176.437 224.438,177.092 222.957 C 177.864 221.211,180.217 212.369,180.698 209.403 C 180.984 207.647,180.656 207.570,185.637 210.560 M195.421 216.964 C 196.680 217.858,198.936 219.513,200.433 220.641 L 203.156 222.692 201.905 222.872 C 194.876 223.884,186.469 226.170,181.848 228.328 L 179.068 229.626 182.011 226.643 C 183.630 225.002,186.055 222.760,187.400 221.661 C 190.883 218.814,192.280 217.087,192.302 215.598 C 192.316 214.730,192.211 214.684,195.421 216.964 M102.371 227.346 C 107.697 228.070,112.164 228.885,117.534 230.113 C 119.538 230.571,122.796 231.305,124.775 231.746 C 130.444 233.007,136.817 235.496,134.342 235.482 C 133.937 235.480,131.318 235.797,128.521 236.187 L 123.436 236.897 115.862 234.565 C 107.656 232.039,100.640 229.568,95.993 227.566 L 93.050 226.298 95.339 226.500 C 96.599 226.611,99.763 226.992,102.371 227.346 M218.709 235.608 C 221.944 238.393,221.990 238.306,217.984 236.969 C 209.804 234.239,192.328 232.345,185.609 233.459 C 182.696 233.942,183.023 233.706,187.082 232.393 C 192.073 230.780,193.971 230.380,199.673 229.741 C 202.371 229.439,205.683 228.873,207.032 228.484 L 209.485 227.776 212.756 230.537 C 214.554 232.056,217.233 234.338,218.709 235.608 M150.911 239.493 C 150.511 240.287,147.216 245.757,146.661 246.549 C 146.620 246.607,145.947 246.250,145.166 245.756 C 144.384 245.262,142.157 244.092,140.216 243.156 C 136.632 241.427,136.396 241.047,138.905 241.047 C 141.125 241.047,147.031 240.014,149.141 239.257 C 150.311 238.838,151.308 238.480,151.358 238.462 C 151.407 238.445,151.206 238.908,150.911 239.493 M188.062 241.837 C 191.930 242.108,196.934 242.418,199.182 242.526 C 201.431 242.634,206.435 243.161,210.303 243.697 C 214.170 244.233,220.205 244.852,223.715 245.073 L 230.095 245.475 234.671 249.394 C 237.188 251.549,241.087 254.772,243.336 256.554 C 245.585 258.337,247.620 259.972,247.859 260.188 C 248.338 260.622,230.844 254.776,224.366 252.338 C 211.513 247.501,210.338 247.141,199.182 244.636 C 188.091 242.144,182.249 241.440,180.490 242.381 C 179.674 242.818,179.531 242.694,179.776 241.759 C 179.901 241.278,180.148 241.082,180.498 241.186 C 180.791 241.273,184.195 241.566,188.062 241.837 M187.231 250.337 C 190.755 251.514,193.525 252.202,201.799 253.955 C 205.666 254.775,209.787 255.749,210.957 256.121 C 213.828 257.034,221.787 260.088,221.650 260.225 C 221.590 260.285,219.343 260.122,216.657 259.862 C 213.972 259.602,209.199 259.229,206.051 259.033 L 200.327 258.676 194.113 255.618 C 188.878 253.042,180.867 248.274,180.867 247.735 C 180.867 247.649,181.713 248.003,182.747 248.523 C 183.782 249.042,185.800 249.858,187.231 250.337 M180.447 254.402 C 182.027 255.452,184.387 256.940,185.691 257.710 C 186.995 258.480,188.062 259.314,188.062 259.563 C 188.062 260.143,188.595 260.240,182.466 258.545 C 179.540 257.735,176.879 257.073,176.553 257.073 C 175.708 257.073,175.774 256.572,177.101 252.903 C 177.313 252.316,177.295 252.308,180.447 254.402 M233.524 270.178 C 235.953 270.684,241.038 271.838,244.824 272.743 C 254.318 275.010,258.910 275.731,265.238 275.951 L 270.624 276.138 276.522 280.131 C 279.766 282.326,283.156 284.542,284.056 285.055 C 286.293 286.330,286.596 288.167,284.936 290.408 C 283.746 292.015,283.636 292.001,278.289 289.535 C 271.800 286.543,262.360 282.810,245.922 276.737 C 238.653 274.051,231.014 271.178,228.945 270.351 L 225.184 268.847 227.146 269.053 C 228.226 269.166,231.096 269.673,233.524 270.178 " stroke="none" fill="#0c1444" fill-rule="evenodd"></path><path id="path3" d="M174.489 27.097 C 171.539 28.056,170.180 31.684,171.678 34.600 C 173.639 38.420,179.919 37.490,180.712 33.263 C 181.452 29.320,178.042 25.942,174.489 27.097 M84.786 72.307 C 83.247 72.772,80.929 75.131,80.461 76.710 C 79.105 81.278,84.404 85.413,88.596 83.057 C 94.440 79.772,91.117 70.396,84.786 72.307 M250.896 85.632 C 250.965 85.835,254.186 89.405,258.054 93.567 C 264.932 100.967,265.108 101.192,266.116 103.842 C 266.683 105.332,268.173 108.738,269.428 111.411 C 272.573 118.114,272.891 119.261,270.682 115.934 C 267.292 110.828,261.674 106.648,260.192 108.129 C 259.548 108.774,259.304 107.978,263.658 119.452 C 267.740 130.212,269.256 135.187,270.176 140.851 L 270.826 144.849 269.377 150.549 C 268.580 153.683,267.746 157.409,267.524 158.827 C 266.902 162.804,266.770 162.669,265.224 156.479 C 263.169 148.251,262.933 148.121,260.122 153.672 C 256.343 161.138,255.662 171.962,258.359 181.689 C 259.264 184.954,258.938 184.721,257.077 180.776 C 253.926 174.095,250.285 174.443,250.453 181.409 C 250.761 194.159,255.257 203.174,268.717 218.026 C 278.975 229.346,282.197 233.614,284.371 238.764 C 286.198 243.092,286.266 242.910,283.340 241.499 C 280.296 240.030,274.819 238.607,274.197 239.123 C 272.605 240.444,275.803 245.632,283.254 253.817 C 292.158 263.598,298.670 274.791,301.609 285.364 C 302.284 287.796,304.751 292.282,305.170 291.841 C 305.709 291.273,306.476 287.861,306.661 285.211 C 306.769 283.676,307.147 281.246,307.502 279.811 C 311.277 264.546,309.156 247.995,298.339 208.312 C 292.552 187.081,291.939 182.928,291.086 159.117 C 289.624 118.309,283.061 100.814,265.137 89.947 C 260.618 87.207,250.375 84.103,250.896 85.632 M140.315 87.387 C 134.888 90.185,135.775 99.452,141.589 100.699 C 149.407 102.376,154.229 91.205,147.177 87.751 C 144.845 86.609,142.105 86.464,140.315 87.387 M313.165 108.120 C 309.748 109.901,308.670 114.144,310.812 117.380 C 313.947 122.118,322.502 120.105,322.477 114.636 C 322.456 109.955,316.986 106.127,313.165 108.120 M278.257 159.783 C 281.474 163.687,284.227 171.382,282.405 171.382 C 281.339 171.382,275.357 159.943,276.011 159.155 C 276.672 158.359,277.206 158.508,278.257 159.783 M345.461 164.455 C 337.179 167.410,338.100 178.500,346.839 181.041 C 352.948 182.817,358.149 176.944,356.511 170.118 C 355.397 165.472,350.148 162.782,345.461 164.455 M278.668 181.112 C 283.951 186.745,286.117 191.204,284.164 192.426 C 282.629 193.387,278.964 188.878,276.256 182.692 C 273.878 177.264,274.609 176.785,278.668 181.112 M277.271 193.903 C 280.427 197.121,284.546 204.563,284.546 207.046 C 284.546 212.365,280.731 211.561,277.630 205.589 C 276.875 204.134,275.671 201.987,274.955 200.818 C 271.126 194.563,270.886 191.987,274.133 191.987 C 275.237 191.987,275.624 192.223,277.271 193.903 M98.610 194.585 L 95.339 194.767 98.601 195.734 C 104.871 197.592,115.143 203.374,126.711 211.556 C 133.790 216.564,133.262 216.238,133.907 215.991 C 134.301 215.840,132.955 214.250,128.458 209.558 C 121.447 202.242,118.643 199.906,114.636 198.045 C 112.723 197.156,111.324 196.258,110.640 195.477 L 109.587 194.276 105.734 194.340 C 103.614 194.375,100.409 194.485,98.610 194.585 M128.536 196.108 C 129.526 196.956,133.633 201.019,137.663 205.137 C 145.566 213.211,145.580 213.222,146.962 212.943 L 147.890 212.756 144.387 207.195 C 142.461 204.137,140.164 200.294,139.284 198.655 L 137.684 195.675 133.029 195.283 C 130.468 195.067,128.005 194.817,127.555 194.728 C 126.899 194.598,127.093 194.871,128.536 196.108 M86.509 195.476 C 86.149 195.514,82.651 195.871,78.736 196.269 C 74.821 196.667,71.657 197.031,71.704 197.078 C 71.752 197.125,73.998 197.679,76.697 198.310 C 83.992 200.015,93.664 204.029,104.007 209.645 C 107.957 211.790,114.006 214.554,114.749 214.554 C 115.020 214.554,112.247 212.872,106.132 209.326 C 98.863 205.111,93.651 201.484,90.147 198.201 C 88.201 196.379,86.935 195.431,86.509 195.476 M146.525 197.783 C 150.318 200.707,154.425 205.418,156.655 209.403 C 157.560 211.019,157.841 211.284,158.658 211.284 C 159.804 211.284,159.801 211.359,158.815 207.418 C 158.379 205.677,157.836 203.117,157.609 201.731 L 157.195 199.210 155.540 198.846 C 151.831 198.029,146.140 196.893,145.772 196.897 C 145.557 196.899,145.895 197.297,146.525 197.783 M57.364 200.421 C 58.024 201.698,59.903 204.156,63.949 209.034 C 67.631 213.473,68.037 213.795,74.183 217.125 L 77.230 218.776 83.832 219.128 C 90.710 219.494,96.780 220.079,102.811 220.955 C 104.761 221.239,106.413 221.415,106.481 221.347 C 106.605 221.223,95.466 215.000,92.396 213.479 C 91.496 213.033,87.449 211.531,83.401 210.141 C 70.069 205.563,63.554 202.991,59.309 200.630 C 56.872 199.275,56.765 199.264,57.364 200.421 M167.403 204.134 C 167.915 205.278,168.590 206.987,168.903 207.931 L 169.472 209.648 170.836 209.443 C 172.492 209.194,172.413 209.273,173.344 206.919 C 173.977 205.317,174.025 204.959,173.640 204.712 C 173.028 204.320,168.500 202.563,167.368 202.279 L 166.471 202.054 167.403 204.134 M181.047 208.749 C 180.467 210.633,180.523 210.785,182.094 211.618 C 182.935 212.064,184.364 213.031,185.270 213.767 C 186.864 215.063,186.954 215.093,188.062 214.692 C 188.692 214.464,189.648 214.263,190.188 214.246 C 191.260 214.213,189.130 212.685,183.800 209.665 C 181.169 208.174,181.219 208.191,181.047 208.749 M192.641 215.627 C 192.641 215.901,192.127 216.888,191.499 217.821 L 190.357 219.518 191.725 221.861 C 192.477 223.149,193.102 224.228,193.114 224.259 C 193.126 224.290,194.055 224.103,195.179 223.844 C 196.303 223.584,198.488 223.191,200.034 222.969 L 202.846 222.567 198.807 219.637 C 196.585 218.026,194.289 216.352,193.704 215.919 C 192.881 215.309,192.641 215.243,192.641 215.627 M96.157 227.493 C 102.260 230.024,120.336 236.141,121.714 236.141 C 121.794 236.141,121.852 235.042,121.845 233.698 L 121.832 231.256 118.888 230.577 C 110.777 228.707,105.486 227.816,94.685 226.499 C 93.601 226.367,93.853 226.537,96.157 227.493 M207.173 228.626 C 206.261 228.958,203.553 229.459,201.154 229.737 C 195.980 230.339,196.372 230.094,197.686 231.904 L 198.759 233.383 203.072 233.774 C 207.746 234.198,213.333 235.333,217.989 236.806 L 220.932 237.737 219.624 236.570 C 215.641 233.018,209.497 227.968,209.188 227.992 C 208.992 228.008,208.085 228.293,207.173 228.626 M37.449 230.403 C 34.587 231.430,32.568 235.160,33.335 238.006 C 33.689 239.323,35.679 242.170,36.451 242.467 C 37.153 242.736,41.461 242.084,42.488 241.553 C 48.684 238.349,44.026 228.043,37.449 230.403 M159.371 237.842 C 158.659 238.975,157.968 240.343,157.835 240.883 L 157.594 241.864 158.750 240.556 C 159.729 239.447,161.123 236.239,160.776 235.892 C 160.716 235.832,160.084 236.710,159.371 237.842 M204.217 243.526 C 204.326 243.811,204.415 244.394,204.415 244.822 C 204.415 245.464,204.658 245.662,205.805 245.954 C 210.354 247.110,213.804 248.225,219.624 250.420 C 223.222 251.776,230.507 254.359,235.814 256.159 C 241.120 257.958,245.940 259.629,246.525 259.871 C 248.068 260.509,248.074 260.514,242.273 255.841 C 239.350 253.486,235.347 250.172,233.378 248.477 L 229.798 245.395 224.874 245.196 C 219.709 244.987,212.837 244.298,207.857 243.490 C 204.134 242.886,203.972 242.888,204.217 243.526 M108.724 246.278 C 103.389 248.395,101.018 254.148,103.444 259.088 C 107.347 267.035,118.843 266.588,121.299 258.394 C 123.478 251.118,115.617 243.543,108.724 246.278 M200.924 256.034 C 199.143 258.454,199.086 258.424,206.287 258.898 C 209.665 259.120,214.151 259.478,216.256 259.692 C 218.361 259.906,220.249 260.026,220.452 259.958 C 221.133 259.731,211.651 256.416,207.442 255.410 C 205.148 254.861,203.050 254.359,202.780 254.295 C 202.485 254.224,201.746 254.916,200.924 256.034 M162.180 260.916 C 149.663 278.218,129.195 293.462,81.571 320.946 C 71.249 326.903,55.274 337.002,55.274 337.570 C 55.274 337.736,57.150 339.735,59.444 342.012 C 61.738 344.290,63.565 346.311,63.505 346.503 C 63.445 346.695,63.503 346.745,63.634 346.614 C 63.765 346.483,64.778 347.218,65.885 348.249 C 66.992 349.280,69.169 351.197,70.722 352.511 L 73.545 354.898 74.821 353.492 C 75.523 352.718,77.766 350.245,79.805 347.997 C 102.536 322.932,119.971 306.757,135.890 295.963 C 142.847 291.246,160.495 268.047,163.860 259.197 C 164.312 258.009,164.199 258.124,162.180 260.916 M227.637 269.701 C 228.676 270.156,237.409 273.432,254.293 279.699 C 257.711 280.968,263.046 283.026,266.150 284.273 C 272.165 286.689,273.645 286.990,282.829 287.664 L 285.854 287.886 285.854 287.065 C 285.854 286.430,285.503 286.040,284.301 285.344 C 283.446 284.849,279.951 282.569,276.533 280.278 L 270.319 276.113 264.595 275.950 C 257.866 275.760,254.755 275.251,242.191 272.285 C 230.576 269.543,225.029 268.559,227.637 269.701 M109.567 286.613 C 105.519 288.627,95.658 293.359,87.653 297.128 C 73.322 303.877,49.506 315.636,43.575 318.892 L 40.544 320.557 42.103 322.568 C 42.961 323.675,43.816 324.781,44.002 325.027 C 44.276 325.388,45.673 324.733,51.181 321.667 C 60.247 316.619,76.568 307.920,83.892 304.234 C 91.032 300.639,111.492 287.693,116.271 283.745 C 117.685 282.577,117.641 282.596,109.567 286.613 M332.966 298.300 C 328.634 299.189,325.763 303.035,325.758 307.954 C 325.746 320.847,344.006 321.461,344.657 308.589 C 345.012 301.575,339.716 296.914,332.966 298.300 M175.310 332.670 C 169.525 334.401,166.628 341.915,170.116 346.145 C 173.650 350.433,179.494 349.337,182.765 343.772 C 185.871 338.489,180.850 331.012,175.310 332.670 M244.651 334.015 C 240.482 336.145,239.890 340.876,243.358 344.344 C 246.807 347.793,250.648 347.336,252.884 343.212 C 256.214 337.069,250.709 330.919,244.651 334.015 " stroke="none" fill="#cad482" fill-rule="evenodd"></path><path id="path4" d="M175.388 37.184 C 175.703 37.266,176.218 37.266,176.533 37.184 C 176.848 37.101,176.590 37.034,175.961 37.034 C 175.331 37.034,175.074 37.101,175.388 37.184 M250.286 85.262 C 250.601 85.345,251.116 85.345,251.431 85.262 C 251.746 85.180,251.488 85.113,250.859 85.113 C 250.229 85.113,249.971 85.180,250.286 85.262 M234.337 94.301 C 233.795 94.512,232.308 95.367,231.033 96.201 C 223.302 101.256,213.244 106.365,202.780 110.555 C 198.442 112.291,182.126 120.263,183.647 119.903 C 188.227 118.818,195.666 118.806,196.453 119.883 C 198.557 122.761,177.240 130.977,164.186 132.319 C 159.923 132.757,150.433 138.380,145.183 143.579 C 137.371 151.315,133.672 160.394,136.835 164.072 L 137.590 164.948 137.793 162.772 C 138.354 156.764,142.322 150.580,147.282 147.985 C 150.668 146.213,150.963 147.093,149.308 154.033 C 147.208 162.842,147.655 165.094,151.922 167.214 C 154.677 168.583,154.836 168.588,155.443 167.315 C 156.205 165.717,159.146 163.437,159.915 163.849 C 160.983 164.420,161.921 167.292,162.207 170.861 C 162.582 175.544,163.437 176.827,167.904 179.402 C 168.780 179.907,170.564 181.289,171.869 182.474 C 173.174 183.659,175.255 185.257,176.494 186.026 C 182.220 189.580,183.876 192.532,179.260 190.955 C 176.569 190.036,176.941 190.414,180.294 192.008 C 181.958 192.798,184.472 194.066,185.881 194.826 C 190.537 197.335,192.708 197.869,195.451 197.178 C 198.817 196.331,198.057 193.927,193.301 190.377 C 188.434 186.744,179.952 176.132,176.680 169.583 C 175.404 167.029,173.017 159.619,173.017 158.212 C 173.017 157.609,172.813 156.837,172.563 156.495 C 172.313 156.153,172.182 155.683,172.271 155.450 C 173.148 153.165,169.690 151.351,167.036 152.704 C 166.269 153.095,165.822 153.185,165.822 152.949 C 165.823 151.927,167.963 148.349,170.056 145.871 C 171.347 144.342,172.726 142.527,173.119 141.838 C 174.058 140.195,177.356 138.522,188.226 134.172 C 207.176 126.590,214.374 121.342,211.123 117.480 L 210.309 116.512 211.369 116.093 C 221.594 112.049,231.265 105.517,234.759 100.292 C 237.891 95.609,237.707 92.989,234.337 94.301 M273.099 96.321 C 274.258 97.490,275.280 98.446,275.369 98.446 C 275.459 98.446,274.585 97.490,273.426 96.321 C 272.267 95.151,271.245 94.195,271.155 94.195 C 271.066 94.195,271.940 95.151,273.099 96.321 M290.182 141.619 C 290.182 142.249,290.249 142.506,290.332 142.191 C 290.414 141.877,290.414 141.361,290.332 141.047 C 290.249 140.732,290.182 140.989,290.182 141.619 M290.522 146.198 C 290.522 147.007,290.586 147.339,290.664 146.934 C 290.742 146.529,290.742 145.867,290.664 145.462 C 290.586 145.057,290.522 145.388,290.522 146.198 M290.862 152.576 C 290.864 153.655,290.925 154.057,290.997 153.469 C 291.070 152.881,291.069 151.998,290.994 151.507 C 290.919 151.015,290.860 151.496,290.862 152.576 M291.197 161.243 C 291.197 162.592,291.255 163.144,291.326 162.469 C 291.396 161.795,291.396 160.691,291.326 160.016 C 291.255 159.342,291.197 159.894,291.197 161.243 M69.665 162.061 C 68.870 162.870,68.294 163.532,68.384 163.532 C 68.474 163.532,69.197 162.870,69.992 162.061 C 70.786 161.251,71.363 160.589,71.273 160.589 C 71.183 160.589,70.459 161.251,69.665 162.061 M63.123 168.602 C 62.329 169.411,61.753 170.074,61.843 170.074 C 61.932 170.074,62.656 169.411,63.451 168.602 C 64.245 167.792,64.821 167.130,64.731 167.130 C 64.642 167.130,63.918 167.792,63.123 168.602 M291.516 169.256 C 291.518 170.335,291.579 170.737,291.652 170.149 C 291.724 169.562,291.723 168.679,291.648 168.187 C 291.574 167.696,291.514 168.177,291.516 169.256 M339.569 172.363 C 339.569 172.993,339.636 173.250,339.719 172.935 C 339.801 172.621,339.801 172.105,339.719 171.791 C 339.636 171.476,339.569 171.733,339.569 172.363 M291.824 174.816 C 291.828 175.536,291.895 175.791,291.973 175.385 C 292.051 174.978,292.048 174.389,291.966 174.076 C 291.884 173.764,291.820 174.096,291.824 174.816 M103.271 181.425 C 103.675 181.503,104.338 181.503,104.742 181.425 C 105.147 181.347,104.816 181.283,104.007 181.283 C 103.197 181.283,102.866 181.347,103.271 181.425 M118.157 181.756 C 118.654 181.831,119.390 181.829,119.792 181.751 C 120.194 181.673,119.787 181.612,118.888 181.614 C 117.989 181.617,117.659 181.680,118.157 181.756 M69.092 184.699 C 69.587 184.774,70.397 184.774,70.891 184.699 C 71.386 184.624,70.981 184.562,69.992 184.562 C 69.002 184.562,68.598 184.624,69.092 184.699 M80.709 184.701 C 81.297 184.774,82.180 184.773,82.671 184.698 C 83.163 184.624,82.682 184.564,81.603 184.566 C 80.523 184.568,80.121 184.629,80.709 184.701 M107.686 185.689 C 109.080 185.750,111.361 185.750,112.756 185.689 C 114.150 185.627,113.009 185.577,110.221 185.577 C 107.433 185.577,106.292 185.627,107.686 185.689 M171.954 189.274 C 172.359 189.352,173.021 189.352,173.426 189.274 C 173.831 189.196,173.500 189.132,172.690 189.132 C 171.881 189.132,171.549 189.196,171.954 189.274 M48.680 190.774 C 43.041 195.075,45.221 202.953,55.331 214.805 C 56.469 216.140,57.473 217.428,57.563 217.669 C 58.715 220.748,81.658 233.167,82.945 231.407 C 83.695 230.381,82.194 229.062,72.006 221.797 C 62.416 214.958,56.660 209.939,53.424 205.595 C 51.651 203.216,51.782 203.010,54.022 204.656 C 56.583 206.536,60.202 208.934,64.233 211.422 L 67.796 213.620 66.595 212.207 C 60.326 204.825,56.753 200.027,57.102 199.462 C 57.349 199.063,54.843 199.306,51.304 200.024 C 49.849 200.320,48.876 193.350,49.988 190.597 C 50.447 189.462,50.391 189.469,48.680 190.774 M100.164 194.502 C 100.478 194.584,100.993 194.584,101.308 194.502 C 101.623 194.420,101.365 194.352,100.736 194.352 C 100.106 194.352,99.849 194.420,100.164 194.502 M133.115 200.654 C 134.636 202.183,135.954 203.434,136.044 203.434 C 136.134 203.434,134.963 202.183,133.442 200.654 C 131.921 199.125,130.603 197.874,130.513 197.874 C 130.423 197.874,131.594 199.125,133.115 200.654 M151.104 202.228 C 151.104 202.285,151.582 202.763,152.167 203.291 L 153.230 204.252 152.269 203.189 C 151.374 202.198,151.104 201.976,151.104 202.228 M124.775 205.724 C 126.025 206.983,127.121 208.013,127.211 208.013 C 127.301 208.013,126.352 206.983,125.102 205.724 C 123.853 204.464,122.757 203.434,122.667 203.434 C 122.577 203.434,123.526 204.464,124.775 205.724 M141.613 209.403 C 143.499 211.337,145.081 212.919,145.129 212.919 C 145.365 212.919,144.966 212.500,141.701 209.315 L 138.185 205.887 141.613 209.403 M48.078 209.158 C 48.689 209.787,49.262 210.303,49.352 210.303 C 49.441 210.303,49.016 209.787,48.406 209.158 C 47.795 208.528,47.222 208.013,47.133 208.013 C 47.043 208.013,47.468 208.528,48.078 209.158 M169.268 209.603 C 169.388 210.028,169.677 211.472,169.910 212.813 C 170.469 216.031,170.464 216.032,171.598 212.316 L 172.581 209.099 171.102 209.375 C 170.023 209.577,169.546 209.541,169.337 209.241 C 169.158 208.986,169.132 209.122,169.268 209.603 M131.591 212.775 C 133.895 215.162,134.371 215.813,133.933 215.981 C 133.631 216.097,133.249 216.109,133.086 216.008 C 132.922 215.907,132.788 215.886,132.788 215.961 C 132.788 216.036,134.591 217.321,136.795 218.816 L 140.801 221.534 138.522 219.434 C 137.269 218.279,134.546 215.635,132.471 213.557 C 130.397 211.480,130.001 211.128,131.591 212.775 M159.608 210.774 C 159.608 211.241,159.391 211.330,158.506 211.227 L 157.405 211.098 158.861 214.216 C 159.661 215.931,160.543 217.892,160.821 218.574 C 161.681 220.691,161.659 219.689,160.741 214.990 C 159.884 210.599,159.608 209.572,159.608 210.774 M180.371 211.365 C 180.290 211.590,179.703 213.873,179.068 216.438 C 178.432 219.003,177.545 221.932,177.096 222.947 C 176.438 224.436,176.216 225.643,176.721 224.993 C 176.779 224.918,177.512 223.952,178.349 222.846 C 180.060 220.588,183.256 217.581,185.356 216.254 C 187.068 215.173,187.068 215.215,185.364 213.830 C 182.703 211.668,180.632 210.645,180.371 211.365 M52.657 213.737 C 53.268 214.366,53.841 214.881,53.930 214.881 C 54.020 214.881,53.595 214.366,52.984 213.737 C 52.374 213.107,51.801 212.592,51.711 212.592 C 51.621 212.592,52.047 213.107,52.657 213.737 M145.544 213.073 C 145.544 213.087,146.660 214.199,148.023 215.544 L 150.503 217.989 149.255 215.445 C 148.010 212.905,148.006 212.902,146.776 212.974 C 146.098 213.014,145.544 213.059,145.544 213.073 M113.290 213.513 C 113.403 213.695,113.311 213.929,113.085 214.033 C 112.859 214.136,113.023 214.133,113.451 214.026 C 114.024 213.881,114.161 213.938,113.972 214.243 C 113.807 214.511,113.850 214.574,114.095 214.422 C 114.619 214.099,114.575 213.978,113.779 213.552 C 113.373 213.335,113.170 213.318,113.290 213.513 M210.793 217.171 C 211.861 218.250,212.809 219.133,212.899 219.133 C 212.989 219.133,212.188 218.250,211.120 217.171 C 210.052 216.092,209.105 215.209,209.015 215.209 C 208.925 215.209,209.725 216.092,210.793 217.171 M190.457 218.904 C 190.129 219.318,188.757 220.557,187.408 221.658 C 186.059 222.759,183.630 225.002,182.011 226.643 L 179.068 229.626 181.875 228.314 C 183.419 227.593,186.547 226.448,188.825 225.771 C 193.559 224.363,193.386 224.617,191.631 221.663 C 190.348 219.504,190.317 219.386,190.864 218.782 C 191.178 218.436,191.348 218.152,191.244 218.152 C 191.139 218.152,190.785 218.491,190.457 218.904 M78.255 219.041 C 78.752 219.116,79.488 219.114,79.890 219.036 C 80.292 218.959,79.886 218.897,78.986 218.900 C 78.087 218.902,77.758 218.966,78.255 219.041 M223.712 229.763 C 224.322 230.392,224.895 230.908,224.985 230.908 C 225.075 230.908,224.649 230.392,224.039 229.763 C 223.429 229.133,222.856 228.618,222.766 228.618 C 222.676 228.618,223.102 229.133,223.712 229.763 M194.335 230.419 C 191.984 230.845,183.305 233.461,183.531 233.675 C 183.595 233.735,184.530 233.639,185.609 233.462 C 186.688 233.285,190.089 233.198,193.167 233.268 L 198.762 233.396 197.651 231.849 C 196.547 230.312,196.544 230.302,197.289 230.159 C 197.894 230.043,197.912 230.013,197.383 230.000 C 197.024 229.992,195.652 230.181,194.335 230.419 M121.841 232.298 C 121.060 236.815,121.696 237.178,128.635 236.172 C 131.236 235.795,133.749 235.487,134.221 235.487 C 134.692 235.487,135.077 235.376,135.076 235.241 C 135.071 234.653,124.340 231.306,122.255 231.242 C 122.128 231.238,121.942 231.713,121.841 232.298 M220.104 237.498 C 219.703 237.781,219.715 237.808,220.175 237.662 C 220.478 237.565,220.789 237.661,220.866 237.876 C 220.943 238.091,221.103 238.177,221.222 238.068 C 221.651 237.674,220.607 237.142,220.104 237.498 M170.922 238.718 C 170.580 239.099,170.065 239.411,169.778 239.412 C 169.423 239.412,169.074 240.032,168.687 241.347 C 166.701 248.107,155.522 259.458,137.531 272.983 C 117.588 287.976,96.535 301.511,54.224 326.545 C 47.067 330.779,47.256 329.624,52.752 335.568 C 58.559 341.848,71.627 354.233,71.627 353.456 C 71.627 353.369,70.192 352.048,68.438 350.521 C 64.566 347.148,55.274 338.016,55.274 337.582 C 55.274 337.003,71.137 326.968,81.571 320.946 C 129.073 293.532,148.975 278.745,161.948 261.226 C 163.040 259.751,164.055 258.468,164.204 258.374 C 164.627 258.106,167.569 251.056,169.197 246.405 C 170.009 244.088,170.914 241.624,171.209 240.931 C 171.504 240.238,171.701 239.301,171.646 238.848 L 171.545 238.025 170.922 238.718 M149.141 239.257 C 147.031 240.014,141.125 241.047,138.905 241.047 C 136.396 241.047,136.632 241.427,140.216 243.156 C 142.157 244.092,144.384 245.262,145.166 245.756 C 145.947 246.250,146.620 246.607,146.661 246.549 C 147.866 244.828,151.618 238.369,151.358 238.462 C 151.308 238.480,150.311 238.838,149.141 239.257 M158.517 240.746 C 157.858 241.480,157.317 242.253,157.315 242.463 C 157.310 243.265,154.128 250.156,152.611 252.653 C 146.355 262.949,136.285 271.950,121.832 280.163 C 119.673 281.390,117.857 282.511,117.797 282.654 C 117.737 282.798,117.553 282.832,117.388 282.730 C 117.224 282.628,117.089 282.710,117.089 282.911 C 117.089 283.112,116.919 283.172,116.712 283.043 C 116.493 282.908,116.422 282.953,116.543 283.148 C 116.827 283.607,107.728 289.903,96.811 296.799 C 90.269 300.932,90.136 301.113,95.666 298.354 C 132.240 280.110,151.041 263.584,158.768 242.891 C 160.164 239.153,160.139 238.939,158.517 240.746 M179.772 241.771 C 179.531 242.694,179.676 242.817,180.490 242.381 C 182.166 241.484,188.186 242.157,197.711 244.304 C 205.394 246.037,205.301 246.019,204.837 245.706 C 204.620 245.559,204.399 244.839,204.347 244.104 L 204.252 242.769 199.509 242.549 C 193.538 242.273,181.585 241.425,180.659 241.213 C 180.141 241.094,179.912 241.239,179.772 241.771 M180.867 247.735 C 180.867 247.821,182.447 248.935,184.379 250.210 C 188.886 253.187,199.962 258.849,199.748 258.067 C 199.707 257.916,200.247 257.034,200.948 256.107 C 202.463 254.104,202.431 254.061,198.855 253.330 C 191.770 251.879,186.008 250.160,182.747 248.523 C 181.713 248.003,180.867 247.649,180.867 247.735 M177.101 252.903 C 175.774 256.572,175.708 257.073,176.553 257.073 C 176.879 257.073,179.540 257.735,182.466 258.545 C 188.595 260.240,188.062 260.143,188.062 259.563 C 188.062 259.314,186.995 258.480,185.691 257.710 C 184.387 256.940,182.027 255.452,180.447 254.402 C 177.295 252.308,177.313 252.316,177.101 252.903 M308.825 257.727 C 308.825 258.357,308.892 258.614,308.974 258.299 C 309.057 257.984,309.057 257.469,308.974 257.155 C 308.892 256.840,308.825 257.097,308.825 257.727 M204.175 258.943 C 204.672 259.018,205.408 259.016,205.810 258.938 C 206.212 258.861,205.805 258.799,204.906 258.802 C 204.007 258.804,203.677 258.868,204.175 258.943 M209.240 259.266 C 209.644 259.344,210.307 259.344,210.711 259.266 C 211.116 259.188,210.785 259.124,209.975 259.124 C 209.166 259.124,208.835 259.188,209.240 259.266 M309.195 265.086 C 309.196 266.885,309.251 267.579,309.318 266.628 C 309.384 265.678,309.383 264.206,309.316 263.358 C 309.249 262.509,309.195 263.287,309.195 265.086 M214.240 273.247 C 213.569 274.056,213.998 274.813,215.699 275.820 C 226.987 282.504,248.590 293.205,250.613 293.116 C 250.928 293.102,251.186 293.237,251.186 293.417 C 251.186 293.596,251.320 293.659,251.485 293.558 C 251.650 293.456,254.011 293.815,256.733 294.356 C 284.348 299.842,293.061 299.032,295.962 290.711 L 296.337 289.635 295.266 290.672 C 291.376 294.436,282.461 294.696,269.665 291.417 C 259.264 288.752,252.738 286.568,235.065 279.836 C 219.615 273.951,214.895 272.458,214.240 273.247 M272.432 286.856 C 272.875 287.041,275.505 288.241,278.277 289.523 C 282.080 291.282,283.442 291.773,283.833 291.527 C 284.585 291.052,285.467 289.745,285.701 288.757 L 285.905 287.898 283.018 287.682 C 280.047 287.459,274.795 286.942,272.772 286.672 C 271.743 286.535,271.709 286.553,272.432 286.856 M285.773 301.790 C 286.357 301.863,287.314 301.863,287.899 301.790 C 288.483 301.718,288.005 301.658,286.836 301.658 C 285.666 301.658,285.188 301.718,285.773 301.790 M325.512 307.931 C 325.515 308.651,325.582 308.907,325.661 308.500 C 325.739 308.093,325.736 307.504,325.654 307.192 C 325.572 306.879,325.508 307.212,325.512 307.931 M114.616 312.756 L 113.655 313.818 114.718 312.858 C 115.709 311.962,115.931 311.693,115.679 311.693 C 115.622 311.693,115.144 312.171,114.616 312.756 M111.350 315.699 L 110.057 317.089 111.447 315.796 C 112.740 314.594,112.988 314.309,112.740 314.309 C 112.687 314.309,112.061 314.935,111.350 315.699 M104.165 322.567 L 99.918 326.901 104.252 322.654 C 106.635 320.318,108.585 318.368,108.585 318.320 C 108.585 318.086,108.111 318.542,104.165 322.567 M40.460 320.401 C 40.289 320.572,42.091 323.124,43.769 325.086 C 44.791 326.281,43.627 324.522,42.134 322.615 C 41.274 321.516,40.665 320.523,40.781 320.407 C 40.897 320.291,40.919 320.196,40.829 320.196 C 40.739 320.196,40.573 320.289,40.460 320.401 M95.496 331.235 L 92.723 334.096 95.585 331.324 C 98.243 328.748,98.595 328.373,98.357 328.373 C 98.309 328.373,97.021 329.661,95.496 331.235 M88.456 338.594 L 87.163 339.984 88.553 338.691 C 89.845 337.488,90.093 337.204,89.846 337.204 C 89.792 337.204,89.167 337.829,88.456 338.594 M83.871 343.500 L 82.911 344.563 83.974 343.602 C 84.965 342.707,85.187 342.437,84.934 342.437 C 84.878 342.437,84.400 342.915,83.871 343.500 " stroke="none" fill="#447f66" fill-rule="evenodd"></path></g></svg>